<?xml version="1.0" encoding="utf-8"?>
<!-- Svg Vector Icons : http://www.onlinewebfonts.com/icon -->
<!DOCTYPE svg PUBLIC "-//W3C//DTD SVG 1.1//EN" "http://www.w3.org/Graphics/SVG/1.1/DTD/svg11.dtd">
<svg version="1.1" xmlns="http://www.w3.org/2000/svg" xmlns:xlink="http://www.w3.org/1999/xlink" x="0px" y="0px" viewBox="0 0 1000 1000" enable-background="new 0 0 1000 1000" xml:space="preserve">
<metadata> Svg Vector Icons : http://www.onlinewebfonts.com/icon </metadata>
<g><g id="_x32_069a460dcf28295e231f3111e0439b1"><path d="M513.4,168.7c-3.7-18.7,1-38.2,14-58.3c15.3-24.2,33.4-37.5,54.2-40.2c26.9-3.1,51.8,11.2,75,42.3c21.5,29,31,56.2,28.6,81.1c-0.3,15-22.5,24.2-66.4,27.2c-34.4,2.7-59.3-0.7-75.3-10.6C526.7,200.4,516.8,186.4,513.4,168.7z M988.3,926.8c-2.4,5.1-10.9,4.4-25.6-2.1c-24.9-11.9-52.5-30-83.5-54.5c-34.4-27.2-54.5-48.7-60-64.4c-1-3.7-0.7-8.5,1.4-14.6l6.5-17.4c4.4-16-1.4-32-17.4-48c-7.8-7.8-18.4-15.3-31.3-22.5c-30.3-16-73.9-29.6-131.5-40.5c-59.6-11.2-116.5-17.7-170.7-19.1l-65.8,3.4c-17.4,20.1-34.1,38.8-50.1,56.2c-13.6,14.3-26.9,27.6-39.9,39.9c-52.1,46.7-102.9,82.1-152.6,106.6c-67.8,33.1-118.6,42.6-153,27.9c-4.4-3.1-5.8-8.2-4.4-15.3l6.1-19.1c23.5-51.1,62-97.8,114.8-140c4.4-3.7,9.2-7.2,13.6-10.6c41.9-31,98.5-63.7,169.7-97.4c46.7-20.1,85.2-33.4,115.2-39.9l28.3-39.2c11.2-14,23.2-27.3,35.1-39.9c25.6-27.6,51.8-53.1,79.4-76c2.4-1,2.7-2.4,1.3-4.1c-14-7.8-36.8-22.5-67.8-44c-26.6-18.1-47.4-30.7-62.4-37.5c-47-21.1-95.1-15-144.4,18.4c-29.6,19.8-45.7,41.6-47.4,65.4l-1.7,29.3c1.7,8.2-24.5,21.8-78.4,40.9c-9.9,3.1-18.1,5.8-24.9,7.5c-11.9,2.4-20.1,2.7-24.2,0.7l-1.4-0.7l-3.7-2.4c-4.8-9.5,17.7-42.2,67.1-98.5c3.4-3.8,6.9-7.5,10.3-11.2l0.1-0.1l0.1-0.1c89.4-94.1,194.9-130.5,316.2-108.9c33.4,5.8,88.6,26.2,165.9,61c8.5-8.5,23.2-18.7,43.3-30.3c25.6-14.6,46.7-22.5,62.7-22.8c35.1-0.3,57.2,12.9,66.4,40.5c5.4,16.7-6.8,40.2-37.1,70.5c-31.3,32-61,52.1-88.9,60.3c-35.1,10.6-73.3,4.4-113.8-17.7c-18,14-38.5,34.1-60.6,59.6c-1,1-2,2.4-3.1,3.4L494,542.5l-0.7,4.4l36.1-1.4c25.9,0.7,52.1,5.1,79,13.6c73.3,23.5,134.6,52.5,184,86.9c23.5,16.7,46.4,35.8,67.8,57.2c22.1,22.5,43.6,47.7,63.7,75.3c17.7,24.5,32.7,49.4,45.3,74.3C987,887.6,993.4,912.1,988.3,926.8z M719.8,329.9c6.5,5.1,21.8,7.2,46.7,6.1c27.6-1,46.3-6.5,56.9-17c5.1-5.1,5.1-10.2-0.7-15c-6.5-5.8-18.4-7.2-35.4-4.8c-14.7,2.4-30.3,7.5-47.4,15.3C723.3,322.4,716.4,327.5,719.8,329.9z M348.1,656.3l-7.8-1c-23.5,4.8-45.3,10.2-65.4,16.4c-28.3,9.2-54.5,19.8-78.7,31.7c-19.4,9.2-37.5,19.4-54.2,30.3C88.9,768,64.3,801.4,68.8,833.8l5.1,5.8c14,9.2,41.6,2,82.4-21.5c55.5-32.4,105.3-70.5,149.2-114.8C320.2,688.3,334.5,672.6,348.1,656.3z"/></g></g>
</svg>