<svg width="64" height="64" xmlns="http://www.w3.org/2000/svg">
 <metadata>Svg Vector Icons : http://www.onlinewebfonts.com/icon</metadata>

 <g>
  <title>background</title>
  <rect fill="none" id="canvas_background" height="66" width="66" y="-1" x="-1"/>
 </g>
 <g>
  <title>Layer 1</title>
  <g id="svg_1">
   <g id="_x32_069a460dcf28295e231f3111e0439b1">
    <path fill="#ff7f00" id="svg_2" d="m32.346478,11.023392c-0.232491,-1.219896 0.062832,-2.491979 0.879681,-3.803204c0.961369,-1.578689 2.098675,-2.446315 3.405632,-2.62245c1.69025,-0.202229 3.254829,0.730633 4.712593,2.759443c1.350945,1.891816 1.947872,3.66621 1.797066,5.290562c-0.018852,0.978526 -1.41378,1.578691 -4.172211,1.774395c-2.16151,0.176134 -3.726089,-0.045664 -4.731445,-0.691491c-1.055618,-0.639304 -1.677685,-1.552595 -1.891315,-2.707255zm29.840118,49.454697c-0.150803,0.332695 -0.684898,0.287037 -1.608559,-0.136993c-1.564587,-0.776299 -3.298817,-1.957054 -5.246693,-3.555313c-2.161507,-1.774391 -3.424477,-3.176945 -3.770065,-4.201134c-0.062836,-0.241371 -0.043983,-0.554501 0.087967,-0.952435l0.408417,-1.135086c0.276478,-1.043766 -0.087959,-2.087524 -1.093311,-3.131287c-0.49012,-0.508831 -1.156158,-0.998093 -1.966724,-1.467789c-1.903889,-1.043762 -4.643471,-1.930954 -8.262745,-2.642021c-3.744938,-0.730629 -7.320225,-1.154659 -10.725853,-1.245987l-4.134512,0.221798c-1.093323,1.311226 -2.142658,2.53112 -3.148012,3.66621c-0.854551,0.932861 -1.690248,1.800484 -2.507097,2.602882c-3.27368,3.046471 -6.465675,5.355797 -9.588553,6.954056c-4.260181,2.159279 -7.452176,2.779011 -9.613684,1.820057c-0.276472,-0.202232 -0.36444,-0.534927 -0.276472,-0.9981l0.383291,-1.245991c1.476612,-3.333504 3.895741,-6.379986 7.213405,-9.132904c0.276474,-0.241367 0.578078,-0.469692 0.854551,-0.69149c2.632766,-2.022285 6.189202,-4.155476 10.663023,-6.353893c2.93437,-1.311234 5.353502,-2.178856 7.238539,-2.602886l1.778214,-2.557213c0.703751,-0.913292 1.457764,-1.780916 2.205496,-2.602877c1.608562,-1.800488 3.254829,-3.463984 4.989059,-4.957867c0.150806,-0.065233 0.169659,-0.156561 0.081684,-0.267464c-0.879681,-0.508833 -2.312309,-1.467787 -4.260183,-2.87034c-1.671398,-1.180756 -2.978354,-2.002718 -3.920872,-2.446316c-2.953224,-1.376459 -5.975565,-0.978525 -9.073307,1.200325c-1.859901,1.291655 -2.871538,2.713779 -2.978358,4.266373l-0.106817,1.911386c0.106817,0.534925 -1.539448,1.422125 -4.92623,2.668116c-0.622061,0.202227 -1.137303,0.378361 -1.564579,0.48926c-0.747731,0.156565 -1.262975,0.176138 -1.520597,0.045668l-0.087968,-0.045668l-0.232487,-0.156561c-0.301606,-0.619736 1.112171,-2.752922 4.216198,-6.425653c0.213638,-0.247894 0.433558,-0.489262 0.647196,-0.730633l0.006283,-0.006523l0.006285,-0.006523c5.617408,-6.138618 12.246451,-8.513174 19.868283,-7.104095c2.098671,0.378363 5.567139,1.709156 10.424248,3.979336c0.534092,-0.554499 1.45776,-1.219894 2.720737,-1.976622c1.608566,-0.952433 2.934372,-1.467789 3.939724,-1.487358c2.20549,-0.019571 3.594139,0.841532 4.172215,2.642019c0.339306,1.089424 -0.427277,2.622446 -2.331165,4.59907c-1.966721,2.087523 -3.832905,3.398745 -5.585991,3.933672c-2.20549,0.691492 -4.605774,0.287037 -7.15057,-1.154659c-1.131023,0.91329 -2.419128,2.224516 -3.80777,3.888008c-0.062832,0.065235 -0.125671,0.156565 -0.19479,0.2218l-3.279959,4.109814l-0.043987,0.287037l2.268332,-0.091335c1.627415,0.045666 3.273674,0.332699 4.963924,0.887199c4.605774,1.533024 8.457527,3.424839 11.561558,5.66893c1.476612,1.089424 2.91552,2.335411 4.260181,3.731445c1.388638,1.467789 2.739586,3.11171 4.00256,4.912197c1.112167,1.598259 2.054688,3.222614 2.846405,4.846966c1.118454,2.270176 1.520599,3.868435 1.200138,4.827393zm-16.871075,-38.938808c0.408432,0.332701 1.369793,0.469692 2.934376,0.397934c1.73423,-0.065233 2.909241,-0.424026 3.575283,-1.108994c0.320461,-0.332701 0.320461,-0.6654 -0.043983,-0.978527c-0.408421,-0.378365 -1.156158,-0.469692 -2.224342,-0.313128c-0.923664,0.156563 -1.903885,0.489262 -2.978363,0.998096c-1.043049,0.515356 -1.476604,0.848055 -1.26297,1.004618zm-23.355597,21.292728l-0.490108,-0.065239c-1.476612,0.313129 -2.846405,0.665401 -4.109381,1.069855c-1.778216,0.600163 -3.424483,1.291656 -4.945077,2.067951c-1.21899,0.600163 -2.356296,1.26556 -3.405631,1.976627c-3.336516,2.237556 -4.882246,4.416412 -4.599491,6.530022l0.320456,0.378368c0.879683,0.600159 2.613917,0.130466 5.177567,-1.402557c3.487316,-2.113609 6.616478,-4.599072 9.374912,-7.488983c0.92367,-0.978523 1.822203,-2.002716 2.676752,-3.066044z"/>
   </g>
  </g>
 </g>
</svg>